<svg xmlns="http://www.w3.org/2000/svg" viewBox="0 0 64 64">
  <defs>
    <linearGradient id="g" x1="0%" y1="0%" x2="100%" y2="100%">
      <stop offset="0%" stop-color="#92400e"/>
      <stop offset="100%" stop-color="#451a03"/>
    </linearGradient>
    <linearGradient id="head" x1="0%" y1="0%" x2="100%" y2="100%">
      <stop offset="0%" stop-color="#f5f5f4"/>
      <stop offset="100%" stop-color="#d6d3d1"/>
    </linearGradient>
  </defs>
  <rect width="64" height="64" rx="14" fill="#060a10"/>
  <!-- wings spread -->
  <path d="M32 32 Q20 24 8 20 Q10 30 18 34 Q24 36 28 34Z" fill="url(#g)"/>
  <path d="M32 32 Q44 24 56 20 Q54 30 46 34 Q40 36 36 34Z" fill="url(#g)"/>
  <!-- wing feather detail -->
  <path d="M16 30 Q12 24 8 22" fill="none" stroke="#a16207" stroke-width="1.5" opacity=".5"/>
  <path d="M20 32 Q16 26 12 24" fill="none" stroke="#a16207" stroke-width="1.5" opacity=".5"/>
  <path d="M48 30 Q52 24 56 22" fill="none" stroke="#a16207" stroke-width="1.5" opacity=".5"/>
  <path d="M44 32 Q48 26 52 24" fill="none" stroke="#a16207" stroke-width="1.5" opacity=".5"/>
  <!-- body -->
  <ellipse cx="32" cy="36" rx="10" ry="12" fill="url(#g)"/>
  <!-- white head -->
  <ellipse cx="32" cy="22" rx="10" ry="10" fill="url(#head)"/>
  <!-- eye -->
  <circle cx="32" cy="20" r="3.5" fill="#78350f"/>
  <circle cx="32" cy="20" r="2" fill="#1c0a00"/>
  <circle cx="31" cy="19" r="0.8" fill="#ffffff" opacity=".7"/>
  <!-- beak -->
  <path d="M30 26 Q32 30 34 26 Q34 28 32 30 Q30 28 30 26Z" fill="#d97706"/>
  <!-- talons -->
  <path d="M28 46 Q26 50 24 52 M28 46 Q28 52 28 54 M28 46 Q30 50 32 52" fill="none" stroke="#d97706" stroke-width="2" stroke-linecap="round"/>
  <path d="M36 46 Q34 50 32 52 M36 46 Q36 52 36 54 M36 46 Q38 50 40 52" fill="none" stroke="#d97706" stroke-width="2" stroke-linecap="round"/>
  <!-- tail feathers -->
  <path d="M28 46 Q24 54 22 58 M32 48 Q32 56 32 60 M36 46 Q40 54 42 58" fill="none" stroke="#92400e" stroke-width="2" stroke-linecap="round" opacity=".7"/>
</svg>
