<svg xmlns="http://www.w3.org/2000/svg" viewBox="0 0 64 64">
  <defs>
    <linearGradient id="g" x1="0%" y1="0%" x2="100%" y2="100%">
      <stop offset="0%" stop-color="#ff9a5c"/>
      <stop offset="100%" stop-color="#e84444"/>
    </linearGradient>
    <linearGradient id="b" x1="0%" y1="0%" x2="0%" y2="100%">
      <stop offset="0%" stop-color="#ffffff"/>
      <stop offset="100%" stop-color="#c8dcff"/>
    </linearGradient>
  </defs>
  <rect width="64" height="64" rx="14" fill="#1a0e0e"/>
  <!-- flame -->
  <ellipse cx="32" cy="55" rx="6" ry="9" fill="#ff6b00" opacity=".7"/>
  <ellipse cx="32" cy="55" rx="3" ry="6" fill="#ffd700"/>
  <!-- rocket body -->
  <path d="M32 8 C22 8 18 24 18 36 L24 40 L40 40 L46 36 C46 24 42 8 32 8Z" fill="url(#g)"/>
  <!-- nose cone highlight -->
  <path d="M32 8 C27 8 23 18 22 26 L32 26 Z" fill="url(#b)" opacity=".4"/>
  <!-- window -->
  <circle cx="32" cy="28" r="6" fill="#0e1a2e"/>
  <circle cx="32" cy="28" r="4" fill="#1a3060"/>
  <circle cx="30" cy="26" r="1.5" fill="#5b8cff" opacity=".8"/>
  <!-- wings -->
  <path d="M18 36 L10 48 L22 44 Z" fill="#cc3333"/>
  <path d="M46 36 L54 48 L42 44 Z" fill="#cc3333"/>
  <!-- exhaust nozzle -->
  <rect x="27" y="40" width="10" height="6" rx="2" fill="#883333"/>
</svg>
