<svg xmlns="http://www.w3.org/2000/svg" viewBox="0 0 64 64">
  <defs>
    <linearGradient id="g1" x1="0%" y1="0%" x2="0%" y2="100%">
      <stop offset="0%" stop-color="#38bdf8"/>
      <stop offset="100%" stop-color="#0369a1"/>
    </linearGradient>
    <linearGradient id="g2" x1="0%" y1="0%" x2="0%" y2="100%">
      <stop offset="0%" stop-color="#7dd3fc"/>
      <stop offset="100%" stop-color="#0284c7"/>
    </linearGradient>
  </defs>
  <rect width="64" height="64" rx="14" fill="#020b14"/>
  <!-- wave 1 (back) -->
  <path d="M6 42 Q14 34 22 38 Q30 42 38 34 Q46 26 58 30 L58 56 L6 56Z" fill="#0369a1" opacity=".5"/>
  <!-- wave 2 (mid) -->
  <path d="M6 38 Q14 28 24 34 Q34 40 44 30 Q52 22 58 26 L58 56 L6 56Z" fill="url(#g1)" opacity=".7"/>
  <!-- wave 3 (front) -->
  <path d="M6 44 Q16 32 26 38 Q36 44 46 34 Q52 28 58 32 L58 56 L6 56Z" fill="url(#g2)"/>
  <!-- foam dots -->
  <circle cx="22" cy="34" r="2" fill="#e0f2fe" opacity=".7"/>
  <circle cx="40" cy="30" r="1.5" fill="#e0f2fe" opacity=".6"/>
  <circle cx="14" cy="36" r="1" fill="#e0f2fe" opacity=".5"/>
  <!-- sun -->
  <circle cx="48" cy="16" r="8" fill="#fbbf24" opacity=".85"/>
  <circle cx="48" cy="16" r="5" fill="#fef3c7"/>
  <!-- sun rays -->
  <line x1="48" y1="6" x2="48" y2="4" stroke="#fbbf24" stroke-width="1.5" stroke-linecap="round"/>
  <line x1="57" y1="16" x2="59" y2="16" stroke="#fbbf24" stroke-width="1.5" stroke-linecap="round"/>
  <line x1="54" y1="10" x2="56" y2="8" stroke="#fbbf24" stroke-width="1.5" stroke-linecap="round"/>
  <line x1="54" y1="22" x2="56" y2="24" stroke="#fbbf24" stroke-width="1.5" stroke-linecap="round"/>
</svg>
